<svg xmlns="http://www.w3.org/2000/svg" xmlns:xlink="http://www.w3.org/1999/xlink" width="200" zoomAndPan="magnify" viewBox="0 0 150 149.999998" height="200" preserveAspectRatio="xMidYMid meet" version="1.0"><defs><g/><clipPath id="d91c9b3e2a"><path d="M 47.820312 27.511719 L 89.070312 27.511719 L 89.070312 81 L 47.820312 81 Z M 47.820312 27.511719 " clip-rule="nonzero"/></clipPath><clipPath id="6bdb750a30"><path d="M 61 91 L 76 91 L 76 94.261719 L 61 94.261719 Z M 61 91 " clip-rule="nonzero"/></clipPath><clipPath id="9d70b31fc5"><path d="M 61 60 L 64 60 L 64 64.242188 L 61 64.242188 Z M 61 60 " clip-rule="nonzero"/></clipPath><clipPath id="18c4fc20e1"><path d="M 58 58 L 61 58 L 61 64.242188 L 58 64.242188 Z M 58 58 " clip-rule="nonzero"/></clipPath><clipPath id="d85653ac43"><path d="M 64 57 L 67 57 L 67 64.242188 L 64 64.242188 Z M 64 57 " clip-rule="nonzero"/></clipPath><clipPath id="e595f116e6"><path d="M 68 58 L 71 58 L 71 64.242188 L 68 64.242188 Z M 68 58 " clip-rule="nonzero"/></clipPath><clipPath id="4342970948"><path d="M 71 53 L 74 53 L 74 64.242188 L 71 64.242188 Z M 71 53 " clip-rule="nonzero"/></clipPath><clipPath id="a126bba09b"><path d="M 75 50 L 76.90625 50 L 76.90625 64.242188 L 75 64.242188 Z M 75 50 " clip-rule="nonzero"/></clipPath><clipPath id="46bd6b79cb"><path d="M 56.65625 50 L 75 50 L 75 60 L 56.65625 60 Z M 56.65625 50 " clip-rule="nonzero"/></clipPath><clipPath id="542491e477"><path d="M 73 49.992188 L 75 49.992188 L 75 52 L 73 52 Z M 73 49.992188 " clip-rule="nonzero"/></clipPath><clipPath id="4fb57be0c1"><path d="M 51.40625 38.070312 L 63.40625 38.070312 L 63.40625 50.070312 L 51.40625 50.070312 Z M 51.40625 38.070312 " clip-rule="nonzero"/></clipPath><clipPath id="0d744fa289"><path d="M 73.210938 34.382812 L 75.671875 34.382812 L 75.671875 36.84375 L 73.210938 36.84375 Z M 73.210938 34.382812 " clip-rule="nonzero"/></clipPath><clipPath id="28464c1299"><path d="M 74.441406 34.382812 C 73.761719 34.382812 73.210938 34.933594 73.210938 35.613281 C 73.210938 36.292969 73.761719 36.84375 74.441406 36.84375 C 75.121094 36.84375 75.671875 36.292969 75.671875 35.613281 C 75.671875 34.933594 75.121094 34.382812 74.441406 34.382812 Z M 74.441406 34.382812 " clip-rule="nonzero"/></clipPath><clipPath id="24f508c660"><path d="M 80.183594 48.761719 L 81.820312 48.761719 L 81.820312 50.398438 L 80.183594 50.398438 Z M 80.183594 48.761719 " clip-rule="nonzero"/></clipPath><clipPath id="44bff37ca1"><path d="M 81.003906 48.761719 C 80.550781 48.761719 80.183594 49.128906 80.183594 49.582031 C 80.183594 50.03125 80.550781 50.398438 81.003906 50.398438 C 81.453125 50.398438 81.820312 50.03125 81.820312 49.582031 C 81.820312 49.128906 81.453125 48.761719 81.003906 48.761719 Z M 81.003906 48.761719 " clip-rule="nonzero"/></clipPath><clipPath id="432ac6beb7"><path d="M 68.734375 40.039062 L 71.015625 40.039062 L 71.015625 42.320312 L 68.734375 42.320312 Z M 68.734375 40.039062 " clip-rule="nonzero"/></clipPath><clipPath id="644c5a3aaa"><path d="M 69.875 40.039062 C 69.242188 40.039062 68.734375 40.550781 68.734375 41.179688 C 68.734375 41.808594 69.242188 42.320312 69.875 42.320312 C 70.503906 42.320312 71.015625 41.808594 71.015625 41.179688 C 71.015625 40.550781 70.503906 40.039062 69.875 40.039062 Z M 69.875 40.039062 " clip-rule="nonzero"/></clipPath><clipPath id="8af7c7dd73"><path d="M 62.121094 53.203125 L 63.757812 53.203125 L 63.757812 54.839844 L 62.121094 54.839844 Z M 62.121094 53.203125 " clip-rule="nonzero"/></clipPath><clipPath id="b207c84ff5"><path d="M 62.941406 53.203125 C 62.488281 53.203125 62.121094 53.570312 62.121094 54.023438 C 62.121094 54.472656 62.488281 54.839844 62.941406 54.839844 C 63.390625 54.839844 63.757812 54.472656 63.757812 54.023438 C 63.757812 53.570312 63.390625 53.203125 62.941406 53.203125 Z M 62.941406 53.203125 " clip-rule="nonzero"/></clipPath><clipPath id="ed643867fb"><path d="M 77.726562 39.222656 L 79.363281 39.222656 L 79.363281 40.859375 L 77.726562 40.859375 Z M 77.726562 39.222656 " clip-rule="nonzero"/></clipPath><clipPath id="0abc12da28"><path d="M 78.542969 39.222656 C 78.09375 39.222656 77.726562 39.589844 77.726562 40.039062 C 77.726562 40.492188 78.09375 40.859375 78.542969 40.859375 C 78.996094 40.859375 79.363281 40.492188 79.363281 40.039062 C 79.363281 39.589844 78.996094 39.222656 78.542969 39.222656 Z M 78.542969 39.222656 " clip-rule="nonzero"/></clipPath><clipPath id="0a41762fc3"><path d="M 69.054688 72.355469 L 70.691406 72.355469 L 70.691406 73.992188 L 69.054688 73.992188 Z M 69.054688 72.355469 " clip-rule="nonzero"/></clipPath><clipPath id="145c12e4f5"><path d="M 69.875 72.355469 C 69.421875 72.355469 69.054688 72.71875 69.054688 73.171875 C 69.054688 73.625 69.421875 73.992188 69.875 73.992188 C 70.324219 73.992188 70.691406 73.625 70.691406 73.171875 C 70.691406 72.71875 70.324219 72.355469 69.875 72.355469 Z M 69.875 72.355469 " clip-rule="nonzero"/></clipPath><clipPath id="c16aaa6aaf"><path d="M 60.484375 68.378906 L 62.121094 68.378906 L 62.121094 70.019531 L 60.484375 70.019531 Z M 60.484375 68.378906 " clip-rule="nonzero"/></clipPath><clipPath id="bee14c10de"><path d="M 61.300781 68.378906 C 60.847656 68.378906 60.484375 68.746094 60.484375 69.199219 C 60.484375 69.652344 60.847656 70.019531 61.300781 70.019531 C 61.753906 70.019531 62.121094 69.652344 62.121094 69.199219 C 62.121094 68.746094 61.753906 68.378906 61.300781 68.378906 Z M 61.300781 68.378906 " clip-rule="nonzero"/></clipPath></defs><g clip-path="url(#d91c9b3e2a)"><path fill="#231f20" d="M 68.453125 29.679688 C 58.300781 29.679688 50.042969 37.867188 50.042969 47.925781 C 50.042969 52.207031 51.820312 56.082031 53.558594 59.308594 C 54.179688 60.457031 54.855469 61.601562 55.5625 62.703125 C 55.8125 63.09375 56.09375 63.484375 56.390625 63.902344 C 57.847656 65.925781 59.660156 68.449219 59.769531 73.328125 L 59.769531 75.203125 C 59.769531 76.957031 61.210938 78.382812 62.980469 78.382812 L 73.929688 78.382812 C 75.699219 78.382812 77.140625 76.957031 77.140625 75.203125 L 77.140625 73.0625 C 77.308594 68.359375 79.082031 65.890625 80.507812 63.90625 C 80.808594 63.488281 81.089844 63.09375 81.339844 62.703125 C 83.109375 59.953125 84.34375 57.675781 85.226562 55.53125 C 85.832031 54.046875 86.261719 52.65625 86.535156 51.289062 C 86.753906 50.207031 86.867188 49.078125 86.867188 47.925781 C 86.867188 37.867188 78.605469 29.679688 68.453125 29.679688 Z M 73.929688 80.5625 L 62.980469 80.5625 C 59.996094 80.5625 57.570312 78.160156 57.570312 75.203125 L 57.570312 73.351562 C 57.476562 69.167969 56.015625 67.132812 54.601562 65.164062 C 54.289062 64.726562 53.988281 64.3125 53.707031 63.875 C 52.96875 62.726562 52.265625 61.535156 51.621094 60.332031 C 49.753906 56.871094 47.84375 52.6875 47.84375 47.925781 C 47.84375 36.664062 57.089844 27.5 68.453125 27.5 C 79.820312 27.5 89.0625 36.664062 89.0625 47.925781 C 89.0625 49.222656 88.9375 50.496094 88.691406 51.714844 C 88.390625 53.21875 87.921875 54.738281 87.261719 56.355469 C 86.328125 58.621094 85.035156 61.011719 83.195312 63.875 C 82.914062 64.3125 82.613281 64.726562 82.296875 65.167969 C 80.914062 67.09375 79.484375 69.082031 79.339844 73.117188 L 79.339844 75.203125 C 79.339844 78.160156 76.914062 80.5625 73.929688 80.5625 " fill-opacity="1" fill-rule="nonzero"/></g><g clip-path="url(#6bdb750a30)"><path fill="#231f20" d="M 61.398438 91.488281 L 65.625 93.507812 C 67.1875 94.253906 69.722656 94.253906 71.285156 93.507812 L 75.511719 91.488281 L 61.398438 91.488281 " fill-opacity="1" fill-rule="nonzero"/></g><path fill="#231f20" d="M 76.371094 90.773438 C 76.371094 91.375 75.878906 91.863281 75.269531 91.863281 L 61.640625 91.863281 C 61.03125 91.863281 60.539062 91.375 60.539062 90.773438 C 60.539062 90.167969 61.03125 89.679688 61.640625 89.679688 L 75.269531 89.679688 C 75.878906 89.679688 76.371094 90.167969 76.371094 90.773438 " fill-opacity="1" fill-rule="nonzero"/><path fill="#231f20" d="M 77.285156 87.632812 C 77.285156 88.234375 76.792969 88.722656 76.183594 88.722656 L 60.726562 88.722656 C 60.117188 88.722656 59.625 88.234375 59.625 87.632812 C 59.625 87.03125 60.117188 86.542969 60.726562 86.542969 L 76.183594 86.542969 C 76.792969 86.542969 77.285156 87.03125 77.285156 87.632812 " fill-opacity="1" fill-rule="nonzero"/><path fill="#231f20" d="M 77.285156 84.492188 C 77.285156 85.097656 76.792969 85.585938 76.183594 85.585938 L 60.726562 85.585938 C 60.117188 85.585938 59.625 85.097656 59.625 84.492188 C 59.625 83.890625 60.117188 83.402344 60.726562 83.402344 L 76.183594 83.402344 C 76.792969 83.402344 77.285156 83.890625 77.285156 84.492188 " fill-opacity="1" fill-rule="nonzero"/><path fill="#231f20" d="M 78.242188 81.355469 C 78.242188 81.957031 77.75 82.445312 77.140625 82.445312 L 59.765625 82.445312 C 59.160156 82.445312 58.667969 81.957031 58.667969 81.355469 C 58.667969 80.753906 59.160156 80.265625 59.765625 80.265625 L 77.140625 80.265625 C 77.75 80.265625 78.242188 80.753906 78.242188 81.355469 " fill-opacity="1" fill-rule="nonzero"/><g clip-path="url(#9d70b31fc5)"><path fill="#f68b2b" d="M 63.394531 64.238281 L 61.550781 64.238281 L 61.550781 60.722656 L 63.394531 60.722656 L 63.394531 64.238281 " fill-opacity="1" fill-rule="nonzero"/></g><path fill="#f5c116" d="M 58.289062 56.957031 C 58.097656 57.402344 58.308594 57.921875 58.761719 58.113281 C 59.210938 58.300781 59.734375 58.09375 59.925781 57.644531 C 60.117188 57.195312 59.90625 56.675781 59.453125 56.488281 C 59.003906 56.296875 58.480469 56.507812 58.289062 56.957031 " fill-opacity="1" fill-rule="nonzero"/><path fill="#f5c116" d="M 61.65625 58.972656 C 61.464844 59.417969 61.675781 59.9375 62.125 60.128906 C 62.578125 60.316406 63.097656 60.109375 63.292969 59.660156 C 63.484375 59.210938 63.273438 58.691406 62.820312 58.503906 C 62.367188 58.3125 61.847656 58.523438 61.65625 58.972656 " fill-opacity="1" fill-rule="nonzero"/><path fill="#f5c116" d="M 65.019531 55.734375 C 64.828125 56.183594 65.039062 56.699219 65.492188 56.890625 C 65.945312 57.082031 66.464844 56.871094 66.65625 56.421875 C 66.847656 55.972656 66.636719 55.457031 66.1875 55.265625 C 65.734375 55.074219 65.210938 55.285156 65.019531 55.734375 " fill-opacity="1" fill-rule="nonzero"/><path fill="#f5c116" d="M 68.386719 56.574219 C 68.195312 57.023438 68.40625 57.539062 68.859375 57.730469 C 69.308594 57.921875 69.832031 57.710938 70.023438 57.261719 C 70.214844 56.8125 70.003906 56.296875 69.550781 56.105469 C 69.101562 55.914062 68.578125 56.125 68.386719 56.574219 " fill-opacity="1" fill-rule="nonzero"/><path fill="#f5c116" d="M 71.625 51.273438 C 71.433594 51.722656 71.644531 52.242188 72.097656 52.433594 C 72.550781 52.621094 73.070312 52.414062 73.261719 51.964844 C 73.453125 51.515625 73.242188 50.996094 72.792969 50.808594 C 72.339844 50.617188 71.816406 50.824219 71.625 51.273438 " fill-opacity="1" fill-rule="nonzero"/><g clip-path="url(#18c4fc20e1)"><path fill="#f68b2b" d="M 60.027344 64.238281 L 58.1875 64.238281 L 58.1875 58.867188 L 60.027344 58.867188 L 60.027344 64.238281 " fill-opacity="1" fill-rule="nonzero"/></g><g clip-path="url(#d85653ac43)"><path fill="#f68b2b" d="M 66.761719 64.238281 L 64.917969 64.238281 L 64.917969 57.300781 L 66.761719 57.300781 L 66.761719 64.238281 " fill-opacity="1" fill-rule="nonzero"/></g><g clip-path="url(#e595f116e6)"><path fill="#f68b2b" d="M 70.125 64.238281 L 68.285156 64.238281 L 68.285156 58.867188 L 70.125 58.867188 L 70.125 64.238281 " fill-opacity="1" fill-rule="nonzero"/></g><g clip-path="url(#4342970948)"><path fill="#f68b2b" d="M 73.523438 64.238281 L 71.683594 64.238281 L 71.683594 53.5625 L 73.523438 53.5625 L 73.523438 64.238281 " fill-opacity="1" fill-rule="nonzero"/></g><g clip-path="url(#a126bba09b)"><path fill="#f68b2b" d="M 76.890625 64.238281 L 75.046875 64.238281 L 75.046875 50.863281 L 76.890625 50.863281 L 76.890625 64.238281 " fill-opacity="1" fill-rule="nonzero"/></g><g clip-path="url(#46bd6b79cb)"><path fill="#f5c116" d="M 74.152344 50.371094 L 72.164062 51.261719 L 69.089844 56.605469 L 65.761719 55.429688 L 62.558594 58.988281 L 59.09375 56.996094 L 56.671875 58.644531 L 56.671875 59.265625 L 59.117188 57.601562 L 62.664062 59.640625 L 65.914062 56.027344 L 69.320312 57.230469 L 72.527344 51.65625 L 74.363281 50.835938 L 74.152344 50.371094 " fill-opacity="1" fill-rule="nonzero"/></g><g clip-path="url(#542491e477)"><path fill="#f5c116" d="M 73.972656 51.625 L 74.144531 50.652344 L 73.410156 49.988281 L 74.882812 50.402344 L 73.972656 51.625 " fill-opacity="1" fill-rule="nonzero"/></g><g clip-path="url(#4fb57be0c1)"><path fill="#28292a" d="M 57.066406 44.203125 L 62.726562 44.203125 C 62.726562 47.445312 60.191406 50.070312 57.066406 50.070312 C 53.941406 50.070312 51.40625 47.445312 51.40625 44.203125 C 51.40625 40.964844 53.941406 38.339844 57.066406 38.339844 C 57.578125 38.339844 58.070312 38.410156 58.539062 38.539062 Z M 63.40625 43.734375 C 63.40625 41.023438 61.632812 38.742188 59.21875 38.070312 L 57.746094 43.734375 L 63.40625 43.734375 " fill-opacity="1" fill-rule="evenodd"/></g><g clip-path="url(#0d744fa289)"><g clip-path="url(#28464c1299)"><path fill="#231f20" d="M 73.210938 34.382812 L 75.671875 34.382812 L 75.671875 36.84375 L 73.210938 36.84375 Z M 73.210938 34.382812 " fill-opacity="1" fill-rule="nonzero"/></g></g><path stroke-linecap="butt" transform="matrix(0.616007, 0, 0, 0.616007, 7.455864, 90.693198)" fill="none" stroke-linejoin="miter" d="M 2.988622 43.998997 L 2.988622 14.13807 L 14.079462 14.13807 C 16.755468 14.13807 19.196847 14.797559 21.416283 16.110197 C 23.63572 17.416494 25.385903 19.204725 26.660494 21.481232 C 27.941426 23.751399 28.581891 26.281556 28.581891 29.065363 C 28.581891 31.855511 27.941426 34.392009 26.660494 36.668517 C 25.385903 38.938683 23.63572 40.726914 21.416283 42.039552 C 19.196847 43.345849 16.755468 43.998997 14.079462 43.998997 Z M 14.079462 37.385078 C 15.499901 37.385078 16.787174 37.029968 17.953963 36.326089 C 19.120752 35.609529 20.046574 34.620294 20.725088 33.358386 C 21.416283 32.090137 21.758711 30.663357 21.758711 29.065363 C 21.758711 27.47371 21.416283 26.04693 20.725088 24.785022 C 20.046574 23.516772 19.120752 22.521197 17.953963 21.817318 C 16.787174 21.107099 15.499901 20.751989 14.079462 20.751989 L 9.811803 20.751989 L 9.811803 37.385078 Z M 39.755167 44.423861 C 38.138149 44.423861 36.724051 44.125822 35.512873 43.529745 C 34.308037 42.933668 33.382215 42.134671 32.735408 41.126413 C 32.094942 40.111813 31.777879 38.983072 31.777879 37.727505 C 31.777879 35.571481 32.54517 33.840321 34.079752 32.534024 C 35.620675 31.221386 37.840111 30.561897 40.744401 30.561897 L 45.513018 30.561897 L 45.513018 30.181422 C 45.513018 29.242918 45.208639 28.469286 44.593538 27.854185 C 43.984778 27.245425 43.198464 26.941045 42.234594 26.941045 C 41.353161 26.941045 40.649283 27.131283 40.135642 27.511757 C 39.622001 27.892232 39.254209 28.342461 39.032265 28.856102 L 32.710043 28.856102 C 32.855891 27.663947 33.318802 26.528864 34.098775 25.450852 C 34.88509 24.366499 35.963102 23.491407 37.345493 22.825577 C 38.727885 22.153405 40.357585 21.817318 42.234594 21.817318 C 44.194039 21.817318 45.906176 22.185111 47.364662 22.933378 C 48.82949 23.668962 49.964573 24.670879 50.76357 25.939128 C 51.562567 27.201036 51.962066 28.615134 51.962066 30.181422 L 51.962066 43.998997 L 46.369087 43.998997 L 45.937882 42.12833 L 45.728621 42.12833 C 45.246686 42.724407 44.466713 43.257071 43.401383 43.726324 C 42.336054 44.195576 41.118535 44.423861 39.755167 44.423861 Z M 41.156582 39.439641 C 42.526291 39.439641 43.591621 39.071849 44.358912 38.336264 C 45.126202 37.594339 45.513018 36.592422 45.513018 35.343196 L 45.513018 34.823214 L 41.587787 34.823214 C 40.48441 34.823214 39.653707 35.032475 39.095677 35.450997 C 38.543989 35.856837 38.264974 36.421208 38.264974 37.137769 C 38.264974 37.841647 38.512283 38.406018 39.000559 38.82454 C 39.501517 39.23038 40.224419 39.439641 41.156582 39.439641 Z M 65.132834 43.998997 C 63.059246 43.998997 61.480276 43.491697 60.395923 42.470757 C 59.317911 41.443475 58.778905 39.978647 58.778905 38.076273 L 58.778905 28.348802 L 55.360973 28.348802 L 55.360973 22.242182 L 58.778905 22.242182 L 58.778905 15.501437 L 65.227952 15.501437 L 65.227952 22.242182 L 70.129736 22.242182 L 70.129736 28.348802 L 65.227952 28.348802 L 65.227952 36.706564 C 65.227952 37.24557 65.335753 37.626045 65.557697 37.85433 C 65.785982 38.082615 66.172798 38.196757 66.718145 38.196757 L 70.129736 38.196757 L 70.129736 43.998997 Z M 81.512272 44.423861 C 79.895254 44.423861 78.481157 44.125822 77.27632 43.529745 C 76.065142 42.933668 75.13932 42.134671 74.492513 41.126413 C 73.852047 40.111813 73.534985 38.983072 73.534985 37.727505 C 73.534985 35.571481 74.302275 33.840321 75.836857 32.534024 C 77.37778 31.221386 79.603557 30.561897 82.501507 30.561897 L 87.270124 30.561897 L 87.270124 30.181422 C 87.270124 29.242918 86.965744 28.469286 86.356984 27.854185 C 85.748225 27.245425 84.955569 26.941045 83.991699 26.941045 C 83.110266 26.941045 82.412729 27.131283 81.899088 27.511757 C 81.385447 27.892232 81.017655 28.342461 80.795711 28.856102 L 74.473489 28.856102 C 74.619338 27.663947 75.082249 26.528864 75.855881 25.450852 C 76.642195 24.366499 77.726548 23.491407 79.10894 22.825577 C 80.491332 22.153405 82.114691 21.817318 83.991699 21.817318 C 85.957486 21.817318 87.669622 22.185111 89.128109 22.933378 C 90.592936 23.668962 91.721678 24.670879 92.520675 25.939128 C 93.319672 27.201036 93.719171 28.615134 93.719171 30.181422 L 93.719171 43.998997 L 88.126192 43.998997 L 87.701328 42.12833 L 87.492067 42.12833 C 87.003791 42.724407 86.230159 43.257071 85.158489 43.726324 C 84.099501 44.195576 82.881981 44.423861 81.512272 44.423861 Z M 82.920029 39.439641 C 84.289738 39.439641 85.355067 39.071849 86.116017 38.336264 C 86.889649 37.594339 87.270124 36.592422 87.270124 35.343196 L 87.270124 34.823214 L 83.344892 34.823214 C 82.241515 34.823214 81.410812 35.032475 80.859124 35.450997 C 80.301094 35.856837 80.022079 36.421208 80.022079 37.137769 C 80.022079 37.841647 80.269388 38.406018 80.764005 38.82454 C 81.264964 39.23038 81.981524 39.439641 82.920029 39.439641 Z M 82.920029 39.439641 " stroke="#01205f" stroke-width="1.600001" stroke-opacity="1" stroke-miterlimit="4"/><g fill="#0e337d" fill-opacity="1"><g transform="translate(63.759058, 118.10549)"><g><path d="M 11.703125 0 L 6.703125 0 L 6.703125 -17 L 0.625 -17 L 0.625 -21.84375 L 17.78125 -21.84375 L 17.78125 -17 L 11.703125 -17 Z M 11.703125 0 "/></g></g></g><g fill="#0e337d" fill-opacity="1"><g transform="translate(82.169786, 118.10549)"><g><path d="M 6.921875 0.3125 C 5.742188 0.3125 4.710938 0.09375 3.828125 -0.34375 C 2.941406 -0.78125 2.265625 -1.367188 1.796875 -2.109375 C 1.328125 -2.847656 1.09375 -3.675781 1.09375 -4.59375 C 1.09375 -6.164062 1.65625 -7.429688 2.78125 -8.390625 C 3.90625 -9.347656 5.523438 -9.828125 7.640625 -9.828125 L 11.140625 -9.828125 L 11.140625 -10.109375 C 11.140625 -10.796875 10.914062 -11.363281 10.46875 -11.8125 C 10.019531 -12.257812 9.441406 -12.484375 8.734375 -12.484375 C 8.085938 -12.484375 7.578125 -12.34375 7.203125 -12.0625 C 6.828125 -11.78125 6.554688 -11.453125 6.390625 -11.078125 L 1.78125 -11.078125 C 1.882812 -11.953125 2.222656 -12.785156 2.796875 -13.578125 C 3.367188 -14.367188 4.15625 -15.003906 5.15625 -15.484375 C 6.164062 -15.972656 7.359375 -16.21875 8.734375 -16.21875 C 10.171875 -16.21875 11.425781 -15.945312 12.5 -15.40625 C 13.570312 -14.875 14.394531 -14.144531 14.96875 -13.21875 C 15.550781 -12.289062 15.84375 -11.253906 15.84375 -10.109375 L 15.84375 0 L 11.765625 0 L 11.453125 -1.375 L 11.296875 -1.375 C 10.941406 -0.9375 10.375 -0.546875 9.59375 -0.203125 C 8.8125 0.140625 7.921875 0.3125 6.921875 0.3125 Z M 7.953125 -3.34375 C 8.953125 -3.34375 9.734375 -3.613281 10.296875 -4.15625 C 10.859375 -4.695312 11.140625 -5.421875 11.140625 -6.328125 L 11.140625 -6.703125 L 8.265625 -6.703125 C 7.453125 -6.703125 6.84375 -6.550781 6.4375 -6.25 C 6.03125 -5.945312 5.828125 -5.539062 5.828125 -5.03125 C 5.828125 -4.507812 6.007812 -4.097656 6.375 -3.796875 C 6.738281 -3.492188 7.265625 -3.34375 7.953125 -3.34375 Z M 7.953125 -3.34375 "/></g></g></g><g fill="#0e337d" fill-opacity="1"><g transform="translate(99.73799, 118.10549)"><g><path d="M 6.734375 0 L 2.03125 0 L 2.03125 -21.84375 L 6.734375 -21.84375 Z M 6.734375 0 "/></g></g></g><g fill="#0e337d" fill-opacity="1"><g transform="translate(108.506488, 118.10549)"><g><path d="M 9.453125 0.3125 C 7.867188 0.3125 6.441406 -0.046875 5.171875 -0.765625 C 3.910156 -1.484375 2.914062 -2.46875 2.1875 -3.71875 C 1.457031 -4.976562 1.09375 -6.390625 1.09375 -7.953125 C 1.09375 -9.515625 1.457031 -10.925781 2.1875 -12.1875 C 2.914062 -13.445312 3.910156 -14.429688 5.171875 -15.140625 C 6.441406 -15.859375 7.867188 -16.21875 9.453125 -16.21875 C 10.953125 -16.21875 12.320312 -15.863281 13.5625 -15.15625 C 14.800781 -14.457031 15.769531 -13.488281 16.46875 -12.25 C 17.175781 -11.007812 17.53125 -9.640625 17.53125 -8.140625 C 17.53125 -7.578125 17.476562 -7.054688 17.375 -6.578125 L 5.765625 -6.578125 C 5.890625 -5.703125 6.296875 -4.96875 6.984375 -4.375 C 7.671875 -3.789062 8.492188 -3.5 9.453125 -3.5 C 10.160156 -3.5 10.765625 -3.632812 11.265625 -3.90625 C 11.765625 -4.175781 12.140625 -4.457031 12.390625 -4.75 L 17.125 -4.75 C 16.914062 -4.039062 16.5 -3.300781 15.875 -2.53125 C 15.257812 -1.757812 14.40625 -1.09375 13.3125 -0.53125 C 12.21875 0.03125 10.929688 0.3125 9.453125 0.3125 Z M 12.890625 -9.421875 C 12.765625 -10.296875 12.390625 -11.023438 11.765625 -11.609375 C 11.140625 -12.191406 10.367188 -12.484375 9.453125 -12.484375 C 8.472656 -12.484375 7.660156 -12.191406 7.015625 -11.609375 C 6.367188 -11.023438 5.953125 -10.296875 5.765625 -9.421875 Z M 12.890625 -9.421875 "/></g></g></g><g fill="#0e337d" fill-opacity="1"><g transform="translate(127.135652, 118.10549)"><g><path d="M 8.015625 0.3125 C 6.285156 0.3125 4.878906 0.015625 3.796875 -0.578125 C 2.722656 -1.171875 1.953125 -1.875 1.484375 -2.6875 C 1.015625 -3.5 0.78125 -4.257812 0.78125 -4.96875 L 5.359375 -4.96875 C 5.359375 -4.53125 5.582031 -4.140625 6.03125 -3.796875 C 6.476562 -3.453125 7.140625 -3.28125 8.015625 -3.28125 C 8.867188 -3.28125 9.5 -3.410156 9.90625 -3.671875 C 10.3125 -3.929688 10.515625 -4.25 10.515625 -4.625 C 10.515625 -5.007812 10.378906 -5.316406 10.109375 -5.546875 C 9.835938 -5.773438 9.359375 -5.941406 8.671875 -6.046875 L 6.296875 -6.421875 C 2.660156 -6.984375 0.84375 -8.566406 0.84375 -11.171875 C 0.84375 -12.085938 1.113281 -12.929688 1.65625 -13.703125 C 2.195312 -14.472656 2.992188 -15.082031 4.046875 -15.53125 C 5.109375 -15.988281 6.378906 -16.21875 7.859375 -16.21875 C 9.359375 -16.21875 10.640625 -15.953125 11.703125 -15.421875 C 12.765625 -14.898438 13.566406 -14.238281 14.109375 -13.4375 C 14.648438 -12.632812 14.921875 -11.847656 14.921875 -11.078125 L 10.359375 -11.078125 C 10.359375 -11.492188 10.132812 -11.859375 9.6875 -12.171875 C 9.238281 -12.484375 8.628906 -12.640625 7.859375 -12.640625 C 7.109375 -12.640625 6.53125 -12.5 6.125 -12.21875 C 5.71875 -11.9375 5.515625 -11.609375 5.515625 -11.234375 C 5.515625 -10.628906 6.117188 -10.234375 7.328125 -10.046875 L 9.828125 -9.671875 C 13.390625 -9.148438 15.171875 -7.488281 15.171875 -4.6875 C 15.171875 -3.769531 14.90625 -2.929688 14.375 -2.171875 C 13.84375 -1.410156 13.039062 -0.804688 11.96875 -0.359375 C 10.894531 0.0859375 9.578125 0.3125 8.015625 0.3125 Z M 8.015625 0.3125 "/></g></g></g><g clip-path="url(#24f508c660)"><g clip-path="url(#44bff37ca1)"><path fill="#231f20" d="M 80.183594 48.761719 L 81.820312 48.761719 L 81.820312 50.398438 L 80.183594 50.398438 Z M 80.183594 48.761719 " fill-opacity="1" fill-rule="nonzero"/></g></g><g clip-path="url(#432ac6beb7)"><g clip-path="url(#644c5a3aaa)"><path fill="#231f20" d="M 68.734375 40.039062 L 71.015625 40.039062 L 71.015625 42.320312 L 68.734375 42.320312 Z M 68.734375 40.039062 " fill-opacity="1" fill-rule="nonzero"/></g></g><g clip-path="url(#8af7c7dd73)"><g clip-path="url(#b207c84ff5)"><path fill="#231f20" d="M 62.121094 53.203125 L 63.757812 53.203125 L 63.757812 54.839844 L 62.121094 54.839844 Z M 62.121094 53.203125 " fill-opacity="1" fill-rule="nonzero"/></g></g><g clip-path="url(#ed643867fb)"><g clip-path="url(#0abc12da28)"><path fill="#231f20" d="M 77.726562 39.222656 L 79.363281 39.222656 L 79.363281 40.859375 L 77.726562 40.859375 Z M 77.726562 39.222656 " fill-opacity="1" fill-rule="nonzero"/></g></g><g clip-path="url(#0a41762fc3)"><g clip-path="url(#145c12e4f5)"><path fill="#231f20" d="M 69.054688 72.355469 L 70.691406 72.355469 L 70.691406 73.992188 L 69.054688 73.992188 Z M 69.054688 72.355469 " fill-opacity="1" fill-rule="nonzero"/></g></g><g clip-path="url(#c16aaa6aaf)"><g clip-path="url(#bee14c10de)"><path fill="#231f20" d="M 60.484375 68.378906 L 62.121094 68.378906 L 62.121094 70.019531 L 60.484375 70.019531 Z M 60.484375 68.378906 " fill-opacity="1" fill-rule="nonzero"/></g></g></svg>